<svg t="1650871927057" class="icon" viewBox="0 0 1024 1024" version="1.1" xmlns="http://www.w3.org/2000/svg" p-id="39621" width="200" height="200"><path d="M510.976 28.135619c269.312 0 487.619048 218.307048 487.619048 487.619048s-218.307048 487.619048-487.619048 487.619047-487.619048-218.307048-487.619048-487.619047 218.307048-487.619048 487.619048-487.619048z m34.084571 397.897143a27.794286 27.794286 0 0 0-23.990857 41.74019l2.730667 3.852191 3.169524 3.218286 3.657143 2.681904c2.633143 2.145524 5.168762 4.291048 7.606857 6.680381l2.291809 2.29181 4.681143 5.266286c22.966857 29.208381 13.799619 74.605714-13.263238 101.717333L409.112381 716.166095l-5.558857 5.071238a73.874286 73.874286 0 0 1-98.694095-5.071238l-2.340572-2.291809-5.022476-5.607619a73.776762 73.776762 0 0 1 5.022476-98.645334l54.223238-54.223238 3.267048-2.974476a30.134857 30.134857 0 0 0-38.912-45.543619v-0.097524l-0.633905 0.487619-3.023238 2.535619-2.681905 2.876953L258.438095 565.394286l-6.339047 6.826666a136.679619 136.679619 0 0 0 6.339047 185.782858l2.29181 2.340571 6.826666 6.339048c53.296762 46.470095 135.021714 44.373333 185.782858-6.339048l122.684952-122.782476 6.144-6.485334c47.006476-53.101714 49.152-132.144762-1.657905-182.954666l-2.243047-2.243048-6.826667-6.339047-7.168-5.753905-3.169524-2.633143a27.599238 27.599238 0 0 0-16.042667-5.12zM746.057143 257.26781a136.630857 136.630857 0 0 0-185.782857 6.339047L437.540571 386.340571l-6.339047 6.729143c-46.811429 52.565333-47.299048 124.928 3.413333 175.737905l2.243048 2.194286 3.705905 3.510857 3.754666 3.364571 3.023238 2.828191 3.413334 2.438095h0.048762l4.047238 1.852952a26.185143 26.185143 0 0 0 34.035809-32.426666l-1.462857-3.559619-3.072-5.315048c-3.462095-4.827429-7.94819-8.289524-11.312762-11.702857l-2.291809-2.194286-4.632381-5.217524c-22.77181-28.42819-11.50781-67.047619 15.603809-94.110476l122.733714-122.684952 5.607619-5.071238a73.776762 73.776762 0 0 1 98.645334 5.071238l2.291809 2.243047 5.071238 5.60762c23.552 28.91581 21.894095 71.777524-5.071238 98.694095l-54.076952 54.125714-3.413333 2.925714a29.891048 29.891048 0 0 0 21.211428 50.956191 31.939048 31.939048 0 0 0 15.798857-4.242286l0.828953-0.78019 3.657143-2.876953 3.120761-3.413333 56.953905-52.565333 6.339048-6.777905a136.582095 136.582095 0 0 0-6.290286-185.782857l-2.291809-2.29181z" fill="#896329" p-id="39622"></path></svg>