<svg t="1650867567029" class="icon" viewBox="0 0 1024 1024" version="1.1" xmlns="http://www.w3.org/2000/svg" p-id="23417" width="200" height="200"><path d="M96 192m80 0l608 0q80 0 80 80l0 480q0 80-80 80l-608 0q-80 0-80-80l0-480q0-80 80-80Z" fill="#0F277F" p-id="23418"></path><path d="M200 320a24 24 0 1 0 0-48 24 24 0 0 0 0 48zM280 320a24 24 0 1 0 0-48 24 24 0 0 0 0 48zM360 320a24 24 0 1 0 0-48 24 24 0 0 0 0 48z" fill="#FFFFFF" p-id="23419"></path><path d="M506.208 370.064L426.784 653.92a189.04 189.04 0 0 0 45.376 44l95.664-341.888a187.552 187.552 0 0 0-61.6 14.016z m90.288-13.408L496.96 712.32a186.56 186.56 0 0 0 26.016 10.16L624 361.424a188.192 188.192 0 0 0-27.52-4.768z" fill="#FFFFFF" p-id="23420"></path><path d="M733.968 679.344c70.16-81.728 66.528-205.008-10.88-282.416-81.232-81.232-212.944-81.232-294.16 0-81.232 81.216-81.232 212.928 0 294.144 77.408 77.44 200.688 81.056 282.4 10.88l24.992 24.992a48.016 48.016 0 0 0 9.392 54.64l113.12 113.136a48 48 0 0 0 67.888-67.872l-113.12-113.136a48.016 48.016 0 0 0-54.656-9.392l-24.976-24.992zM689.12 657.12c62.48-62.48 62.48-163.792 0-226.272-62.48-62.48-163.792-62.48-226.272 0-62.48 62.48-62.48 163.792 0 226.272 62.48 62.48 163.792 62.48 226.272 0z" fill="#FDAFA4" p-id="23421"></path></svg>