<svg t="1650871282922" class="icon" viewBox="0 0 1024 1024" version="1.1" xmlns="http://www.w3.org/2000/svg" p-id="37676" width="200" height="200"><path d="M0 0h1024v1024H0V0z" fill="#202425" opacity=".01" p-id="37677"></path><path d="M34.133333 102.4a34.133333 34.133333 0 0 1 34.133334-34.133333h409.6a34.133333 34.133333 0 0 1 34.133333 34.133333 34.133333 34.133333 0 0 0 34.133333 34.133333h409.6a34.133333 34.133333 0 0 1 34.133334 34.133334v750.933333a34.133333 34.133333 0 0 1-34.133334 34.133333H68.266667a34.133333 34.133333 0 0 1-34.133334-34.133333V102.4z" fill="#FFAA44" p-id="37678"></path><path d="M102.4 238.933333a34.133333 34.133333 0 0 1 34.133333-34.133333h750.933334a34.133333 34.133333 0 0 1 34.133333 34.133333v614.4a34.133333 34.133333 0 0 1-34.133333 34.133334H136.533333a34.133333 34.133333 0 0 1-34.133333-34.133334V238.933333z" fill="#FFFFFF" p-id="37679"></path><path d="M34.133333 307.2a34.133333 34.133333 0 0 1 34.133334-34.133333h887.466666a34.133333 34.133333 0 0 1 34.133334 34.133333v614.4a34.133333 34.133333 0 0 1-34.133334 34.133333H68.266667a34.133333 34.133333 0 0 1-34.133334-34.133333V307.2z" fill="#11AA66" p-id="37680"></path><path d="M496.605867 407.7568a17.066667 17.066667 0 0 1 30.788266 0L576.853333 511.317333a17.066667 17.066667 0 0 0 13.175467 9.557334l113.800533 15.018666a17.066667 17.066667 0 0 1 9.489067 29.2864l-83.217067 79.018667a17.066667 17.066667 0 0 0-5.051733 15.496533l20.923733 112.8448a17.066667 17.066667 0 0 1-24.917333 18.090667l-100.864-54.749867a17.066667 17.066667 0 0 0-16.315733 0l-100.864 54.749867a17.066667 17.066667 0 0 1-24.917334-18.090667l20.8896-112.8448a17.066667 17.066667 0 0 0-5.0176-15.496533l-83.217066-79.018667a17.066667 17.066667 0 0 1 9.489066-29.2864l113.800534-15.018666a17.066667 17.066667 0 0 0 13.175466-9.557334l49.425067-103.560533z" fill="#FFFFFF" p-id="37681"></path></svg>