<svg t="1650867106041" class="icon" viewBox="0 0 1024 1024" version="1.1" xmlns="http://www.w3.org/2000/svg" p-id="22303" width="200" height="200"><path d="M750.592 413.696h-22.7328v62.0544h22.528c9.6256 0 14.9504-0.8192 17.8176-4.096 3.2768-3.6864 3.2768-10.4448 3.2768-14.7456v-21.504c0-5.9392 1.024-12.288-3.4816-16.9984-5.5296-5.7344-15.5648-4.7104-17.408-4.7104z m0 0" fill="#2B9EFF" p-id="22304"></path><path d="M869.1712 318.8736C865.0752 142.1312 720.6912 0 542.9248 0c-141.7216 0-262.144 90.3168-307.4048 216.4736-1.6384 3.072-3.4816 6.144-5.12 9.4208C98.0992 242.688 0 349.3888 0 481.6896c0 140.6976 115.3024 256 256 256h554.5984c119.3984 0 213.4016-93.7984 213.4016-213.4016 0-96.0512-67.3792-179.4048-154.8288-205.4144zM351.8464 594.1248h-46.2848v-96.8704h-42.3936v96.8704h-46.2848V382.5664h46.2848v82.944h42.3936v-82.944h46.2848v211.5584z m158.3104-181.0432h-46.6944v181.0432h-46.6944v-181.0432h-46.2848v-30.5152h139.8784l-0.2048 30.5152z m152.3712 0h-46.6944v181.0432h-46.6944v-181.0432h-46.2848v-30.5152h139.8784v30.5152z m154.4192 45.056c0 19.8656-1.024 29.2864-9.0112 37.4784-7.5776 7.7824-18.2272 10.4448-40.96 10.4448h-39.3216v88.064h-46.6944V382.5664h93.3888c1.4336 0 7.5776 0 12.4928 0.8192 14.9504 2.6624 22.1184 10.8544 24.576 14.9504 5.3248 9.0112 5.3248 22.528 5.3248 31.744l0.2048 28.0576z m0 0" fill="#2B9EFF" p-id="22305"></path></svg>