<svg t="1650868782589" class="icon" viewBox="0 0 1024 1024" version="1.1" xmlns="http://www.w3.org/2000/svg" p-id="32106" width="200" height="200"><path d="M224 224v192h192V224H224z m0-64h192a64 64 0 0 1 64 64v192a64 64 0 0 1-64 64H224a64 64 0 0 1-64-64V224a64 64 0 0 1 64-64zM224 608v192h192v-192H224z m0-64h192a64 64 0 0 1 64 64v192a64 64 0 0 1-64 64H224a64 64 0 0 1-64-64v-192a64 64 0 0 1 64-64zM608 224v192h192V224h-192z m0-64h192a64 64 0 0 1 64 64v192a64 64 0 0 1-64 64h-192a64 64 0 0 1-64-64V224a64 64 0 0 1 64-64z" fill="#2B82D8" p-id="32107"></path><path d="M772.192 591.2l108.608 108.608a51.2 51.2 0 0 1 0 72.416l-108.608 108.608a51.2 51.2 0 0 1-72.416 0l-108.608-108.608a51.2 51.2 0 0 1 0-72.416l108.608-108.608a51.2 51.2 0 0 1 72.416 0z" fill="#CAE705" p-id="32108"></path><path d="M704 568.224L568.224 704 704 839.776 839.776 704 704 568.224z m45.248-45.248l135.776 135.776a64 64 0 0 1 0 90.496l-135.776 135.776a64 64 0 0 1-90.496 0l-135.776-135.776a64 64 0 0 1 0-90.496l135.776-135.776a64 64 0 0 1 90.496 0z" fill="#2B82D8" p-id="32109"></path></svg>