<svg t="1650871186603" class="icon" viewBox="0 0 1024 1024" version="1.1" xmlns="http://www.w3.org/2000/svg" p-id="35646" width="200" height="200"><path d="M643.426462 139.697231c14.336 33.476923 14.966154 68.686769 1.654153 94.483692L773.12 289.083077c16.305231 6.971077 31.113846 20.558769 41.275077 37.769846 10.121846 17.211077 14.729846 36.627692 12.8 53.956923l-15.241846 136.625231c39.857231 1.851077 81.014154 33.949538 101.297231 79.084308 20.283077 45.174154 14.966154 92.711385-13.075693 117.129846-28.081231 24.418462-72.270769 19.968-108.898461-11.027693l-15.281231 136.664616c-1.890462 17.368615-10.200615 31.310769-23.079385 38.675692-12.878769 7.364923-29.302154 7.601231-45.607384 0.590769l-127.881846-54.784c18.116923-34.973538 10.161231-85.976615-19.574154-125.636923-29.735385-39.739077-74.279385-58.840615-109.764923-47.064615-35.446154 11.776-53.563077 51.593846-44.504616 98.185846l-128.157538-54.941538c-16.305231-6.971077-31.192615-20.598154-41.353846-37.809231-10.121846-17.289846-14.690462-36.745846-12.721231-54.114462l15.202461-135.955692c36.509538 30.562462 80.423385 34.776615 108.307693 10.436923 27.844923-24.379077 33.083077-71.640615 12.996923-116.578461-20.086154-44.898462-60.928-76.957538-100.627693-79.084308l15.241847-136.585846c4.056615-36.155077 34.816-53.681231 68.686769-39.148308l128.118154 54.902154c-6.616615-34.343385 1.496615-65.811692 21.661538-84.440616 20.204308-18.628923 50.018462-22.055385 79.950769-9.176615l-0.039384-0.827077c29.853538 12.839385 56.162462 40.329846 70.498461 73.767385z" fill="#1A7AFB" p-id="35647"></path><path d="M448.590769 638.779077l-6.025846 15.36c-30.444308 14.611692-45.292308 51.987692-36.982154 95.113846L306.215385 706.56l10.870153-67.820308h131.505231z" fill="#D2D3D4" p-id="35648"></path><path d="M238.592 466.432c30.523077 25.560615 66.244923 32.689231 93.420308 20.086154l28.750769 91.490461-136.664615 18.904616 14.493538-130.481231zM572.888615 66.756923v-0.827077c29.853538 12.839385 56.162462 40.329846 70.498462 73.767385 14.375385 33.476923 14.966154 68.686769 1.693538 94.483692L773.12 289.083077c16.305231 6.971077 31.113846 20.558769 41.275077 37.769846 3.623385 6.144 6.537846 12.563692 8.664615 19.062154l1.299693 7.483077-158.759385 79.241846L263.404308 244.184615l11.106461-99.643077c4.056615-36.115692 34.816-53.641846 68.686769-39.108923l128.118154 54.902154c-6.616615-34.343385 1.496615-65.811692 21.661539-84.440615 20.204308-18.628923 50.018462-22.055385 79.950769-9.176616z" fill="#B4D5FF" p-id="35649"></path><path d="M161.792 196.647385L287.507692 114.097231l29.184 55.768615-77.430154 76.012308zM365.804308 159.901538l127.212307-83.968 14.493539 74.279385-84.519385 37.218462zM114.097231 547.721846l124.455384-81.289846-9.373538 120.713846-100.745846 13.902769z" fill="#B4D5FF" p-id="35650"></path><path d="M281.088 830.503385l155.569231-89.521231-141.233231-24.418462-45.568 56.989539zM611.643077 964.923077l141.312-86.961231-104.172308-47.458461zM753.664 808.172308l142.887385-91.648L748.307692 648.861538z" fill="#1A7AFB" p-id="35651"></path><path d="M518.931692 220.947692c14.336 33.476923 14.966154 68.686769 1.654154 94.523077l128.078769 54.862769c16.305231 6.971077 31.113846 20.558769 41.275077 37.809231 10.161231 17.171692 14.769231 36.627692 12.8 53.956923l-15.241846 136.585846c39.857231 1.851077 81.014154 33.988923 101.297231 79.123693 20.283077 45.134769 14.966154 92.672-13.075692 117.090461-28.081231 24.418462-72.270769 19.968-108.898462-10.988307l-15.241846 136.62523c-1.929846 17.408-10.24 31.310769-23.118769 38.715077-12.878769 7.364923-29.302154 7.561846-45.607385 0.59077l-127.881846-54.823385c18.116923-34.934154 10.161231-85.937231-19.574154-125.636923S361.156923 720.580923 325.710769 732.317538c-35.485538 11.776-53.563077 51.593846-44.583384 98.185847l-128.118154-54.902154c-16.305231-7.010462-31.153231-20.598154-41.314462-37.848616-10.121846-17.250462-14.729846-36.706462-12.760615-54.075077l15.202461-135.955692c36.509538 30.523077 80.423385 34.776615 108.307693 10.397539 27.844923-24.339692 33.083077-71.601231 12.996923-116.539077-20.086154-44.898462-60.928-76.996923-100.627693-79.084308l15.241847-136.625231c4.056615-36.155077 34.816-53.641846 68.726153-39.148307l128.07877 54.902153c-6.616615-34.343385 1.496615-65.811692 21.661538-84.440615 20.243692-18.589538 50.018462-22.016 79.950769-9.137231l-0.039384-0.866461c29.853538 12.839385 56.162462 40.369231 70.498461 73.806769z" fill="#75B0FF" p-id="35652"></path></svg>