<svg t="1650866596816" class="icon" viewBox="0 0 1024 1024" version="1.1" xmlns="http://www.w3.org/2000/svg" p-id="20725" width="200" height="200"><path d="M365.9 806.6l1.6-4.5c-8.8-2-17.6-4.4-26.3-7.1 7.9 4.2 16.2 8.1 24.7 11.6zM820.7 410.6c-5.5-20.5-13-40.7-22.5-60.2-15.8-32.5-36.6-61.6-61-86.8 27.5 41.2 46.2 87.9 54.6 137l28.9 10zM399.3 807.9l-3.4 10c29.8 9.3 60.2 14.4 90.6 15.4 13.1-9 26.1-19.6 38.8-31.7-40.7 9.4-83.3 11.9-126 6.3zM555.8 792.8c-13.8 15.1-27.9 28.5-42.4 40.1 49.7-2.5 98.6-16.2 143.3-40.7L644.1 749c-27.2 18.7-57 33.4-88.3 43.8zM716.4 682.9l49.6 14.5c18.7-25.3 33.7-53.1 44.7-82.8l-43.4-15c-13.3 30.6-30.5 58.5-50.9 83.3zM824.7 429l-30.3-10.5c5.9 50.8 0.8 103.8-17 155.4-1.3 3.7-2.7 7.2-4 10.8l42.5 14.7c17.9-55.9 20.6-114.3 8.8-170.4z" fill="#A0D3F8" p-id="20726"></path><path d="M891.3 834.2l-43.9-43.9 41.2-30.4c4.9-3.6 7.3-9.7 6.3-15.7-1.1-6-5.4-10.9-11.3-12.6l-85.2-24.9c19-27.5 34.5-57.4 45.5-89.3 32.1-92.8 26.1-192.6-16.9-281-41.6-85.4-113-149.9-201.6-183.1l23.5-68.1c2.9-8.4-1.5-17.5-9.9-20.4-8.3-2.9-17.5 1.5-20.3 9.9L595 143.3c-86.7-24.3-178.1-16.6-259.8 23.1-88.4 43-154.7 117.8-186.8 210.7S122.3 570 165.3 658.4C205 740 272.2 802.5 355.4 836.9l-35.2 101.9c-2.9 8.3 1.5 17.5 9.9 20.3 1.7 0.6 3.5 0.9 5.2 0.9 6.6 0 12.8-4.2 15.1-10.8l35-101.3c36.5 11.6 74 17.6 111.2 17.6 58.5 0 116.4-14.3 169.3-41.9l28.5 97.3c1.7 5.8 6.6 10.2 12.6 11.3 6.1 1.1 12.1-1.4 15.7-6.2l30.4-41.2 43.9 43.9c3.1 3.1 7.2 4.7 11.3 4.7 4.1 0 8.2-1.6 11.3-4.7l71.8-71.8c6.2-6.3 6.2-16.4-0.1-22.7zM766 697.4l-49.6-14.5-71.5-20.9c14.7-28.6 27.9-59.2 39.5-91.1l83 28.7 43.4 15c-11.1 29.7-26.1 57.5-44.8 82.8zM596.4 714l-147.2-50.8 53.5-155 166.5 57.5c-19.6 54.5-44.5 104.9-72.8 148.3z m41.7 14.3l-26.2-9c5.4-8.5 10.7-17.2 15.9-26.1l10.3 35.1zM477.8 482.6l-166.6-57.5c19.2-54.4 43.7-104.9 71.7-148.7l148.5 51.3-53.6 154.9z m83.8-144.5l148.3 51.2c-5 51.8-16.9 106.8-35.3 161.3L508 493l53.6-154.9z m-89 159.6l-53.5 155L272 601.9c4.5-51.7 16.1-106.8 34.2-161.7l166.4 57.5z m343.3 101.7l-42.5-14.7-83.7-28.9c18.6-54.9 30.6-109.5 36-161l68.8 23.8 30.3 10.5c11.7 56 9 114.4-8.9 170.3z m-78.7-335.8c24.5 25.3 45.2 54.3 61 86.8 9.5 19.5 16.9 39.7 22.5 60.2l-28.9-10-64.5-22.3c3.7-47.4 1.6-91.7-6.5-130.8 5.6 5.1 11 10.6 16.4 16.1z m-122.3-80c31 11.7 59.6 27.6 85.3 47.2 11.1 40.6 14.7 89.4 11 142.1L566.8 323l48.1-139.4z m-132.2-21.8c34-1.4 68.3 2.6 101.8 11.8l-47.9 138.8-144.7-50c27.8-41.1 58.7-75.5 90.8-100.6z m-133.6 33.5c33.9-16.5 69.7-26.7 106-31.2-27.8 25-54.5 56.5-78.8 93l-82-28.3c17-12.7 35.3-24 54.8-33.5z m-69.3 45.5l87.5 30.2c-27.8 44.1-52.1 94.7-71.2 148.9l-114.5-39.5c20.4-55.1 54.2-102.7 98.2-139.6zM176.4 395.4L291 435c-18 54.7-29.6 109.7-34.5 161.5l-89-30.7c-11.8-56.2-9-114.5 8.9-170.4z m17.7 249c-9.5-19.5-16.9-39.7-22.5-60.2l83.6 28.9c-3 45.1-0.9 87.5 6.6 124.7-27.4-26.8-50.5-58-67.7-93.4z m173.3 157.7l-1.6 4.5c-8.5-3.6-16.7-7.5-24.8-11.6-20.8-10.8-40.3-23.6-58.3-38.4-11.1-39.6-15.1-86.9-12-138.2l143 49.4-46.3 134.3z m119 31.1c-30.4-0.9-60.8-6-90.6-15.4l3.4-10L444 678.2l143.1 49.4c-19.5 28.2-40.3 53.2-61.9 73.8-12.7 12.2-25.7 22.8-38.8 31.8z m27-0.3c14.4-11.6 28.6-25.1 42.4-40.1 16.3-17.8 32.1-37.8 47-59.8l40.8 14.1 0.5 1.8 12.7 43.3c-44.8 24.5-93.7 38.2-143.4 40.7z m294.8 61.8L762.5 849c-3-3-7.1-4.7-11.3-4.7H750c-4.6 0.3-8.9 2.7-11.7 6.5L716 880.9l-21.6-73.8L690 792l-4.5-15.2-5.6-19.1-4.8-16.5-3.8-12.9-8.1-27.6 29 8.5 69.6 20.3 81.7 23.9-30.2 22.3c-3.8 2.8-6.1 7-6.5 11.7-0.3 4.7 1.3 9.2 4.6 12.5l45.8 45.8-49 49z" fill="#108EE9" p-id="20727"></path></svg>