<svg t="1650860245303" class="icon" viewBox="0 0 1024 1024" version="1.1" xmlns="http://www.w3.org/2000/svg" p-id="4714" width="200" height="200"><path d="M576.1 832H64V187h768v389h-64V251H128v517h448.1z" fill="#727272" p-id="4715"></path><path d="M64 64h768v192H64z" fill="#5280C1" p-id="4716"></path><path d="M831.9 960h-64V832H639.8v-64h128.1V640h64v128H960v64H831.9z" fill="#669E8B" p-id="4717"></path><path d="M368.6 518.3l-113 113c-21.6 21.7-21.6 56.6-0.1 78.1 21.6 21.6 56.5 21.6 78.1-0.1l112.9-112.9c-17.4-6.2-33.8-16.3-47.8-30.3-13.8-13.9-23.9-30.3-30.1-47.8zM309.3 685c-8.1 8.1-21.2 8.1-29.3 0-8.1-8.1-8.1-21.2 0-29.3 8-8.1 21.2-8.1 29.3 0 8.1 8.1 8.1 21.2 0 29.3z m349.4-300.6l-64.5 64.5c-21.4 21.5-56.5 21.6-78.1 0-21.5-21.5-21.4-56.5 0.1-78.1l64.5-64.4c-53-8.7-119.4 15-155.7 51.3-50.5 50.4-50.4 132 0 182.4 50.4 50.4 132.1 50.4 182.4 0.1 36.3-36.4 60-102.8 51.3-155.8z" fill="#5280C1" p-id="4718"></path></svg>