<svg t="1650867991309" class="icon" viewBox="0 0 1024 1024" version="1.1" xmlns="http://www.w3.org/2000/svg" p-id="24288" width="200" height="200"><path d="M629.38038029 77.52033754h187.51402451L512 605.61874738 207.10559518 77.52033754H3.84265862L512 957.64658677l508.15734138-880.23955072z" fill="#41B883" p-id="24289"></path><path d="M816.89440482 77.52033754H629.38038029L512 280.78327413 394.61961971 77.52033754H207.10559518L512 605.61874738z" fill="#34495E" p-id="24290"></path><path d="M596.94780642 919.78605829c22.30188598 16.54179624 69.5149294 34.70823317 127.06659547 34.70823316 122.93114639 0 199.33849084-71.73034852 213.76333099-153.65162508 12.60327333-71.77958007-30.27739488-119.041855-91.12757384-131.64512831l0.29538921-1.6246407c67.1025841-22.79420136 106.53704478-67.74259408 115.79257359-120.51880111 11.02786413-62.27789355-24.17268437-122.14344177-125.09733398-122.14344177-55.09008926 0-110.57403074 19.69261459-140.80219408 39.43446065l9.25552885 50.36386172c24.76346282-15.75409165 67.34874181-33.87129705 108.40784313-33.87129707 63.75483963 0 83.44745419 36.2344108 76.25964989 77.1950491-10.68324341 60.65325284-79.11507897 86.74596713-129.52817226 86.7459671h-38.69598761l-9.15706575 51.98850244h38.59752453c66.95488949 0 126.18042778 30.76971025 114.36485901 102.45082723-6.69548896 42.58527897-44.20991968 99.34924046-133.31900053 99.34924045-48.09921106 0-90.33986929-19.69261459-107.76783319-32.29588784l-28.30813339 53.51468002z" fill="#34495E" p-id="24291"></path></svg>